<svg width="40" height="40" fill="none" xmlns="http://www.w3.org/2000/svg"><path fill-rule="evenodd" clip-rule="evenodd" d="M38.696 20c0 10.325-8.37 18.696-18.696 18.696-10.325 0-18.696-8.37-18.696-18.696C1.304 9.675 9.674 1.304 20 1.304c10.325 0 18.696 8.37 18.696 18.696ZM40 20c0 11.046-8.954 20-20 20S0 31.046 0 20 8.954 0 20 0s20 8.954 20 20ZM20 8.696l4.542 8.787 5.023-4.076v14.42h-19.13v-14.42l5.023 4.076L20 8.696Zm8.386 16.201v-9.073l-3.32 2.683 3.32 6.39Zm-4.76-6.677L20 11.215l-3.625 7.005L20 21.17l3.625-2.95Zm-12.034 6.677 3.32-6.39-3.32-2.684v9.074Zm4.237-5.632-3.887 7.476h16.116l-3.887-7.476L20 22.645l-4.171-3.38Z" fill="#fff"/></svg>