<svg width="96" height="34" fill="none" xmlns="http://www.w3.org/2000/svg"><rect width="96" height="34" rx="17" fill="#333"/><path d="m22 20 3-3m0 0-3-3m3 3H14m5-4.751V12.2c0-1.12 0-1.68.218-2.108.192-.377.497-.682.874-.874C20.52 9 21.08 9 22.2 9h4.6c1.12 0 1.68 0 2.107.218.377.192.683.497.875.874.218.427.218.987.218 2.105v9.607c0 1.118 0 1.677-.218 2.104a2.002 2.002 0 0 1-.875.874c-.427.218-.986.218-2.104.218h-4.606c-1.118 0-1.678 0-2.105-.218a2 2 0 0 1-.874-.874C19 23.48 19 22.92 19 21.8v-.05" stroke="#fff" stroke-width="1.5" stroke-linecap="round" stroke-linejoin="round"/><path d="M41.68 22.5V11.3h1.6v9.808h6.064V22.5H41.68Zm12.799.096c-.854 0-1.611-.187-2.272-.56a4.168 4.168 0 0 1-1.568-1.536c-.384-.661-.576-1.408-.576-2.24 0-.843.192-1.59.576-2.24a4.051 4.051 0 0 1 1.568-1.52c.661-.373 1.418-.56 2.272-.56.842 0 1.594.187 2.256.56.672.363 1.194.87 1.568 1.52.384.64.576 1.387.576 2.24 0 .843-.192 1.59-.576 2.24a4.02 4.02 0 0 1-1.568 1.536c-.662.373-1.414.56-2.256.56Zm0-1.344c.544 0 1.029-.123 1.456-.368a2.596 2.596 0 0 0 1.024-1.04c.245-.459.368-.987.368-1.584 0-.608-.123-1.13-.368-1.568a2.596 2.596 0 0 0-1.024-1.04 2.868 2.868 0 0 0-1.456-.368c-.544 0-1.03.123-1.456.368a2.74 2.74 0 0 0-1.024 1.04c-.256.437-.384.96-.384 1.568 0 .597.128 1.125.384 1.584a2.74 2.74 0 0 0 1.024 1.04c.426.245.912.368 1.456.368ZM64.715 25.7a7.76 7.76 0 0 1-2.272-.336c-.725-.213-1.317-.523-1.776-.928l.736-1.184c.395.341.88.608 1.456.8a5.406 5.406 0 0 0 1.808.304c1.002 0 1.739-.235 2.208-.704.47-.47.704-1.184.704-2.144v-1.792l.16-1.68-.08-1.696v-2.32h1.456v7.328c0 1.493-.373 2.592-1.12 3.296-.747.704-1.84 1.056-3.28 1.056Zm-.192-3.552c-.821 0-1.557-.17-2.208-.512a4.108 4.108 0 0 1-1.536-1.456c-.373-.619-.56-1.333-.56-2.144 0-.821.187-1.536.56-2.144a3.985 3.985 0 0 1 1.536-1.44c.65-.341 1.387-.512 2.208-.512.725 0 1.386.15 1.984.448a3.26 3.26 0 0 1 1.424 1.344c.362.608.544 1.376.544 2.304 0 .917-.181 1.68-.544 2.288a3.464 3.464 0 0 1-1.424 1.376 4.374 4.374 0 0 1-1.984.448Zm.176-1.344c.565 0 1.067-.117 1.504-.352a2.58 2.58 0 0 0 1.024-.976c.256-.416.384-.896.384-1.44 0-.544-.128-1.024-.384-1.44a2.471 2.471 0 0 0-1.024-.96c-.438-.235-.939-.352-1.504-.352-.566 0-1.072.117-1.52.352a2.578 2.578 0 0 0-1.04.96c-.245.416-.368.896-.368 1.44 0 .544.123 1.024.368 1.44.256.416.602.741 1.04.976.448.235.954.352 1.52.352Zm7.35 1.696v-8.48h1.537v8.48H72.05Zm.769-10.112c-.299 0-.55-.096-.752-.288a.958.958 0 0 1-.288-.704c0-.288.096-.528.288-.72.202-.192.453-.288.752-.288.298 0 .544.096.736.288.202.181.304.41.304.688 0 .288-.096.533-.288.736-.192.192-.443.288-.752.288Zm8.228 1.552c.694 0 1.302.133 1.825.4.533.267.949.672 1.248 1.216.298.544.448 1.232.448 2.064v4.88H83.03v-4.704c0-.821-.203-1.44-.609-1.856-.394-.416-.954-.624-1.68-.624-.544 0-1.018.107-1.424.32-.405.213-.72.528-.944.944-.213.416-.32.933-.32 1.552V22.5H76.52v-8.48h1.471v2.288l-.24-.608a2.945 2.945 0 0 1 1.28-1.296c.576-.31 1.248-.464 2.016-.464Z" fill="#fff"/></svg>