<svg width="113" height="34" fill="none" xmlns="http://www.w3.org/2000/svg"><rect width="113" height="34" rx="17" fill="#333"/><path d="m22 20-3-3m0 0 3-3m-3 3h11m-5-4.751V12.2c0-1.12 0-1.68-.218-2.108a1.999 1.999 0 0 0-.874-.874C23.48 9 22.92 9 21.8 9h-4.6c-1.12 0-1.68 0-2.107.218a2.001 2.001 0 0 0-.875.874c-.218.427-.218.987-.218 2.105v9.607c0 1.118 0 1.677.218 2.104.191.376.498.682.875.874.427.218.986.218 2.104.218h4.606c1.118 0 1.678 0 2.105-.218a2 2 0 0 0 .874-.874C25 23.48 25 22.92 25 21.8v-.05" stroke="#fff" stroke-width="1.5" stroke-linecap="round" stroke-linejoin="round"/><path d="M41.68 22.5V11.3h1.6v9.808h6.064V22.5H41.68Zm12.799.096c-.854 0-1.611-.187-2.272-.56a4.168 4.168 0 0 1-1.568-1.536c-.384-.661-.576-1.408-.576-2.24 0-.843.192-1.59.576-2.24a4.051 4.051 0 0 1 1.568-1.52c.661-.373 1.418-.56 2.272-.56.842 0 1.594.187 2.256.56.672.363 1.194.87 1.568 1.52.384.64.576 1.387.576 2.24 0 .843-.192 1.59-.576 2.24a4.02 4.02 0 0 1-1.568 1.536c-.662.373-1.414.56-2.256.56Zm0-1.344c.544 0 1.029-.123 1.456-.368a2.596 2.596 0 0 0 1.024-1.04c.245-.459.368-.987.368-1.584 0-.608-.123-1.13-.368-1.568a2.596 2.596 0 0 0-1.024-1.04 2.868 2.868 0 0 0-1.456-.368c-.544 0-1.03.123-1.456.368a2.74 2.74 0 0 0-1.024 1.04c-.256.437-.384.96-.384 1.568 0 .597.128 1.125.384 1.584a2.74 2.74 0 0 0 1.024 1.04c.426.245.912.368 1.456.368ZM64.715 25.7a7.76 7.76 0 0 1-2.272-.336c-.725-.213-1.317-.523-1.776-.928l.736-1.184c.395.341.88.608 1.456.8a5.406 5.406 0 0 0 1.808.304c1.002 0 1.739-.235 2.208-.704.47-.47.704-1.184.704-2.144v-1.792l.16-1.68-.08-1.696v-2.32h1.456v7.328c0 1.493-.373 2.592-1.12 3.296-.747.704-1.84 1.056-3.28 1.056Zm-.192-3.552c-.821 0-1.557-.17-2.208-.512a4.108 4.108 0 0 1-1.536-1.456c-.373-.619-.56-1.333-.56-2.144 0-.821.187-1.536.56-2.144a3.985 3.985 0 0 1 1.536-1.44c.65-.341 1.387-.512 2.208-.512.725 0 1.386.15 1.984.448a3.26 3.26 0 0 1 1.424 1.344c.362.608.544 1.376.544 2.304 0 .917-.181 1.68-.544 2.288a3.464 3.464 0 0 1-1.424 1.376 4.374 4.374 0 0 1-1.984.448Zm.176-1.344c.565 0 1.067-.117 1.504-.352a2.58 2.58 0 0 0 1.024-.976c.256-.416.384-.896.384-1.44 0-.544-.128-1.024-.384-1.44a2.471 2.471 0 0 0-1.024-.96c-.438-.235-.939-.352-1.504-.352-.566 0-1.072.117-1.52.352a2.578 2.578 0 0 0-1.04.96c-.245.416-.368.896-.368 1.44 0 .544.123 1.024.368 1.44.256.416.602.741 1.04.976.448.235.954.352 1.52.352Zm15.28 1.792c-.854 0-1.611-.187-2.272-.56a4.168 4.168 0 0 1-1.568-1.536c-.384-.661-.576-1.408-.576-2.24 0-.843.192-1.59.576-2.24a4.051 4.051 0 0 1 1.568-1.52c.661-.373 1.418-.56 2.272-.56.842 0 1.594.187 2.256.56.672.363 1.194.87 1.568 1.52.384.64.576 1.387.576 2.24 0 .843-.192 1.59-.576 2.24a4.02 4.02 0 0 1-1.568 1.536c-.662.373-1.414.56-2.256.56Zm0-1.344c.544 0 1.029-.123 1.456-.368a2.596 2.596 0 0 0 1.024-1.04c.245-.459.368-.987.368-1.584 0-.608-.123-1.13-.368-1.568a2.596 2.596 0 0 0-1.024-1.04 2.868 2.868 0 0 0-1.456-.368c-.544 0-1.03.123-1.456.368a2.74 2.74 0 0 0-1.024 1.04c-.256.437-.384.96-.384 1.568 0 .597.128 1.125.384 1.584a2.74 2.74 0 0 0 1.024 1.04c.426.245.912.368 1.456.368Zm10.092 1.344c-.725 0-1.365-.133-1.92-.4a2.933 2.933 0 0 1-1.28-1.216c-.299-.555-.448-1.248-.448-2.08v-4.88h1.536v4.704c0 .832.197 1.456.592 1.872.405.416.97.624 1.696.624.533 0 .997-.107 1.392-.32.395-.224.699-.544.912-.96.213-.427.32-.939.32-1.536V14.02h1.536v8.48H92.95v-2.288l.24.608a2.968 2.968 0 0 1-1.248 1.312c-.555.31-1.179.464-1.872.464Zm10.172 0c-.853 0-1.515-.23-1.984-.688-.47-.459-.704-1.115-.704-1.968v-7.776h1.536v7.712c0 .459.112.81.336 1.056.235.245.565.368.992.368.48 0 .88-.133 1.2-.4l.48 1.104a2.227 2.227 0 0 1-.848.448 3.49 3.49 0 0 1-1.008.144Zm-4.128-7.312V14.02h5.408v1.264h-5.408Z" fill="#fff"/></svg>