<svg width="46" height="46" fill="none" xmlns="http://www.w3.org/2000/svg"><path fill-rule="evenodd" clip-rule="evenodd" d="M44.5 23c0 11.874-9.626 21.5-21.5 21.5S1.5 34.874 1.5 23 11.126 1.5 23 1.5 44.5 11.126 44.5 23Zm1.5 0c0 12.703-10.297 23-23 23S0 35.703 0 23 10.297 0 23 0s23 10.297 23 23ZM23 10l5.224 10.105L34 15.418V32H12V15.418l5.776 4.687L23 10Zm9.644 18.632V18.197l-3.817 3.086 3.817 7.349Zm-5.475-7.68L23 12.898l-4.169 8.056L23 24.345l4.169-3.392Zm-13.838 7.68 3.817-7.35-3.817-3.085v10.435Zm4.872-6.478-4.47 8.598h18.534l-4.47-8.598L23 26.041l-4.797-3.887Z" fill="#fff"/></svg>