<svg width="113" height="34" fill="none" xmlns="http://www.w3.org/2000/svg"><rect width="113" height="34" rx="17" fill="#EF4934"/><path d="M25 24c0-2.21-2.686-4-6-4s-6 1.79-6 4m16-3v-3m0 0v-3m0 3h-3m3 0h3m-13-1a4 4 0 1 1 0-8 4 4 0 0 1 0 8Z" stroke="#fff" stroke-width="1.5" stroke-linecap="round" stroke-linejoin="round"/><path d="M44.944 22.628c-.853 0-1.67-.128-2.448-.384-.779-.267-1.392-.608-1.84-1.024l.592-1.248c.427.373.97.683 1.632.928.661.245 1.35.368 2.064.368.65 0 1.179-.075 1.584-.224.405-.15.704-.352.896-.608.192-.267.288-.565.288-.896 0-.384-.128-.693-.384-.928-.245-.235-.57-.421-.976-.56a9.604 9.604 0 0 0-1.312-.384c-.48-.107-.965-.23-1.456-.368a7.091 7.091 0 0 1-1.328-.56 2.763 2.763 0 0 1-.96-.896c-.245-.384-.368-.875-.368-1.472 0-.576.15-1.104.448-1.584.31-.49.779-.88 1.408-1.168.64-.299 1.45-.448 2.432-.448.65 0 1.296.085 1.936.256.64.17 1.195.416 1.664.736l-.528 1.28c-.48-.32-.987-.55-1.52-.688a5.747 5.747 0 0 0-1.552-.224c-.63 0-1.147.08-1.552.24-.405.16-.704.373-.896.64a1.558 1.558 0 0 0-.272.896c0 .395.123.71.368.944.256.235.581.421.976.56.405.139.848.267 1.328.384.48.107.96.23 1.44.368.49.139.933.32 1.328.544.405.224.73.523.976.896.245.373.368.853.368 1.44 0 .565-.155 1.093-.464 1.584-.31.48-.79.87-1.44 1.168-.64.288-1.45.432-2.432.432Zm6.45-.128v-8.48h1.535v8.48h-1.535Zm.767-10.112c-.298 0-.549-.096-.752-.288a.958.958 0 0 1-.288-.704c0-.288.096-.528.288-.72.203-.192.454-.288.752-.288.3 0 .544.096.736.288.203.181.305.41.305.688 0 .288-.096.533-.288.736-.193.192-.443.288-.753.288ZM59.575 25.7a7.76 7.76 0 0 1-2.272-.336c-.725-.213-1.317-.523-1.776-.928l.736-1.184c.395.341.88.608 1.456.8a5.406 5.406 0 0 0 1.808.304c1.003 0 1.739-.235 2.208-.704.47-.47.704-1.184.704-2.144v-1.792l.16-1.68-.08-1.696v-2.32h1.456v7.328c0 1.493-.373 2.592-1.12 3.296-.746.704-1.84 1.056-3.28 1.056Zm-.192-3.552c-.821 0-1.557-.17-2.208-.512a4.108 4.108 0 0 1-1.536-1.456c-.373-.619-.56-1.333-.56-2.144 0-.821.187-1.536.56-2.144a3.985 3.985 0 0 1 1.536-1.44c.65-.341 1.387-.512 2.208-.512.726 0 1.387.15 1.984.448a3.26 3.26 0 0 1 1.424 1.344c.363.608.544 1.376.544 2.304 0 .917-.181 1.68-.544 2.288a3.464 3.464 0 0 1-1.424 1.376 4.374 4.374 0 0 1-1.984.448Zm.176-1.344c.566 0 1.067-.117 1.504-.352a2.58 2.58 0 0 0 1.024-.976c.256-.416.384-.896.384-1.44 0-.544-.128-1.024-.384-1.44a2.471 2.471 0 0 0-1.024-.96c-.437-.235-.938-.352-1.504-.352-.565 0-1.072.117-1.52.352a2.578 2.578 0 0 0-1.04.96c-.245.416-.368.896-.368 1.44 0 .544.123 1.024.368 1.44.256.416.603.741 1.04.976.448.235.955.352 1.52.352Zm11.88-6.864c.692 0 1.3.133 1.823.4.534.267.95.672 1.248 1.216.299.544.448 1.232.448 2.064v4.88h-1.536v-4.704c0-.821-.203-1.44-.608-1.856-.395-.416-.954-.624-1.68-.624-.544 0-1.018.107-1.424.32-.405.213-.72.528-.944.944-.213.416-.32.933-.32 1.552V22.5H66.91v-8.48h1.472v2.288l-.24-.608a2.945 2.945 0 0 1 1.28-1.296c.576-.31 1.248-.464 2.016-.464Zm14.227 8.656c-.726 0-1.366-.133-1.92-.4a2.933 2.933 0 0 1-1.28-1.216c-.299-.555-.448-1.248-.448-2.08v-4.88h1.536v4.704c0 .832.197 1.456.592 1.872.405.416.97.624 1.696.624.533 0 .997-.107 1.392-.32.394-.224.698-.544.912-.96.213-.427.32-.939.32-1.536V14.02H90v8.48h-1.456v-2.288l.24.608a2.967 2.967 0 0 1-1.248 1.312c-.555.31-1.179.464-1.872.464Zm11.756 0c-.704 0-1.35-.16-1.936-.48-.576-.33-1.04-.816-1.392-1.456-.342-.64-.512-1.44-.512-2.4s.165-1.76.496-2.4c.341-.64.8-1.12 1.376-1.44a4.041 4.041 0 0 1 1.968-.48c.832 0 1.568.181 2.208.544.64.363 1.146.87 1.52 1.52.373.64.56 1.392.56 2.256 0 .864-.187 1.621-.56 2.272a4.004 4.004 0 0 1-1.52 1.52c-.64.363-1.376.544-2.208.544Zm-4.496 3.008V14.02h1.472v2.288l-.096 1.968.16 1.968v5.36h-1.536Zm4.368-4.352c.544 0 1.03-.123 1.456-.368a2.598 2.598 0 0 0 1.024-1.04c.256-.459.384-.987.384-1.584 0-.608-.128-1.13-.384-1.568a2.598 2.598 0 0 0-1.024-1.04 2.868 2.868 0 0 0-1.456-.368c-.534 0-1.019.123-1.456.368a2.74 2.74 0 0 0-1.024 1.04c-.246.437-.368.96-.368 1.568 0 .597.122 1.125.368 1.584a2.74 2.74 0 0 0 1.024 1.04c.437.245.922.368 1.456.368Z" fill="#fff"/></svg>