<svg width="35" height="35" fill="none" xmlns="http://www.w3.org/2000/svg"><path fill-rule="evenodd" clip-rule="evenodd" d="M17.444.53c3.155.036 6.005.812 8.55 2.327a17.072 17.072 0 0 1 6.077 6.113c1.506 2.561 2.277 5.428 2.313 8.603-.09 4.343-1.46 8.052-4.11 11.128-2.65 3.076-6.045 4.979-9.559 5.708V22.232h3.323l.75-4.785h-5.03v-3.134a2.724 2.724 0 0 1 .58-1.8c.402-.512 1.11-.782 2.125-.808h3.038V7.513c-.044-.014-.457-.07-1.241-.166a24.66 24.66 0 0 0-2.677-.166c-2.025.009-3.626.58-4.804 1.713-1.178 1.133-1.78 2.772-1.806 4.917v3.636h-3.828v4.785h3.828V34.41c-4.314-.73-7.709-2.632-10.359-5.708-2.65-3.076-4.02-6.785-4.11-11.128.036-3.175.807-6.042 2.313-8.603a17.072 17.072 0 0 1 6.076-6.114C11.44 1.343 14.29.567 17.444.53Z" fill="#EF4934"/></svg>