<svg width="35" height="35" fill="none" xmlns="http://www.w3.org/2000/svg"><path fill-rule="evenodd" clip-rule="evenodd" d="M17.5 35C27.165 35 35 27.165 35 17.5S27.165 0 17.5 0 0 7.835 0 17.5 7.835 35 17.5 35Zm-3.495-17.5c0-1.92 1.56-3.495 3.495-3.495a3.508 3.508 0 0 1 3.494 3.495 3.508 3.508 0 0 1-3.494 3.495 3.508 3.508 0 0 1-3.495-3.495Zm13.92-4.335c.074 1.455.074 2.88.074 4.335v.546c.002 1.27.004 2.53-.075 3.789-.075 1.68-.465 3.165-1.695 4.395-1.215 1.23-2.715 1.62-4.395 1.695C20.38 28 18.954 28 17.5 28c-1.455 0-2.88 0-4.335-.075-1.68-.075-3.165-.465-4.395-1.695-1.23-1.215-1.62-2.715-1.695-4.395C7 20.38 7 18.955 7 17.5s0-2.88.075-4.335C7.15 11.485 7.54 10 8.77 8.77c1.215-1.23 2.715-1.62 4.395-1.695C14.62 7 16.045 7 17.5 7c1.454 0 2.88 0 4.334.075 1.68.075 3.165.465 4.395 1.695 1.23 1.215 1.62 2.715 1.695 4.395ZM12.114 17.5a5.37 5.37 0 0 0 5.385 5.385 5.37 5.37 0 0 0 5.384-5.385 5.37 5.37 0 0 0-5.384-5.385 5.37 5.37 0 0 0-5.385 5.385Zm9.734-5.61c0 .705.57 1.26 1.26 1.26l.015-.015a1.2 1.2 0 0 0 .885-.36 1.2 1.2 0 0 0 .36-.885c0-.705-.555-1.26-1.26-1.26s-1.26.555-1.26 1.26Z" fill="#EF4934"/></svg>