<svg width="35" height="35" fill="none" xmlns="http://www.w3.org/2000/svg"><path d="M17.5 0C7.836 0 0 7.836 0 17.5 0 27.163 7.836 35 17.5 35 27.163 35 35 27.163 35 17.5 35 7.836 27.163 0 17.5 0Zm-5.085 26.455H8.153V13.633h4.262v12.822Zm-2.131-14.573h-.028c-1.43 0-2.355-.985-2.355-2.215 0-1.259.953-2.216 2.411-2.216 1.458 0 2.355.957 2.383 2.216 0 1.23-.925 2.215-2.411 2.215Zm17.499 14.573H23.52v-6.86c0-1.724-.617-2.9-2.159-2.9-1.177 0-1.878.794-2.187 1.56-.112.273-.14.656-.14 1.04v7.16h-4.262s.056-11.62 0-12.822h4.262v1.815c.567-.874 1.58-2.116 3.841-2.116 2.804 0 4.907 1.832 4.907 5.77v7.353Z" fill="#EF4934"/></svg>